<?xml version="1.0" encoding="UTF-8"?>
<svg id="Layer_1" xmlns="http://www.w3.org/2000/svg" version="1.1"
     viewBox="0 0 500 500">
    <!-- Generator: Adobe Illustrator 30.4.0, SVG Export Plug-In . SVG Version: 2.1.4 Build 226)  -->
    <defs>
        <style>
            .st0 {
            fill: #fff;
            }

            .st1 {
            fill: url(#linear-gradient1);
            }

            .st2 {
            fill: url(#linear-gradient);
            }
        </style>
        <linearGradient id="linear-gradient" x1="43.27" y1="43.27" x2="467.12" y2="467.12"
                        gradientUnits="userSpaceOnUse">
            <stop offset="0" stop-color="#6990ff"/>
            <stop offset=".03" stop-color="#6479f9"/>
            <stop offset=".08" stop-color="#5d57f0"/>
            <stop offset=".12" stop-color="#583de9"/>
            <stop offset=".17" stop-color="#542ae3"/>
            <stop offset=".23" stop-color="#521ee0"/>
            <stop offset=".28" stop-color="#521be0"/>
            <stop offset=".66" stop-color="#6900f4"/>
            <stop offset="1" stop-color="#7f00f6"/>
        </linearGradient>
        <linearGradient id="linear-gradient1" x1="149.99" y1="355.49" x2="149.99" y2="0" gradientUnits="userSpaceOnUse">
            <stop offset=".15" stop-color="#6990ff" stop-opacity=".6"/>
            <stop offset=".55" stop-color="#531ae1"/>
        </linearGradient>
    </defs>
    <rect class="st2" width="500" height="500" rx="130" ry="130"/>
    <path class="st1" d="M299.98,0L0,355.49v-225.49C0,58.2,58.2,0,130,0h169.98Z"/>
    <path class="st0"
          d="M106.17,111.11h285.24c9.9,0,16.7,9.96,13.09,19.18l-17.98,45.96c-2.11,5.39-7.31,8.94-13.09,8.94h-74.65c-7.76,0-14.06,6.29-14.06,14.06v214.94c0,7.76-6.29,14.06-14.06,14.06h-45.96c-7.76,0-14.06-6.29-14.06-14.06v-217.25c0-7.76-6.29-14.06-14.06-14.06h-73.66c-5.82,0-11.04-3.59-13.12-9.02l-16.76-43.64c-3.54-9.21,3.26-19.1,13.12-19.1Z"/>
</svg>
