<?xml version="1.0" encoding="UTF-8"?>
<svg id="Layer_1" xmlns="http://www.w3.org/2000/svg" version="1.1" xmlns:xlink="http://www.w3.org/1999/xlink" viewBox="0 0 500 500">
  <!-- Generator: Adobe Illustrator 30.4.0, SVG Export Plug-In . SVG Version: 2.1.4 Build 226)  -->
  <defs>
    <style>
      .st0 {
        fill: #fff;
      }

      .st1 {
        fill: url(#linear-gradient1);
      }

      .st2 {
        fill: url(#linear-gradient);
      }
    </style>
    <linearGradient id="linear-gradient" x1="37.88" y1="37.88" x2="472.79" y2="472.79" gradientUnits="userSpaceOnUse">
      <stop offset="0" stop-color="#748fc9"/>
      <stop offset=".03" stop-color="#7086c3"/>
      <stop offset=".11" stop-color="#6774b7"/>
      <stop offset=".19" stop-color="#6168b0"/>
      <stop offset=".28" stop-color="#6065ae"/>
      <stop offset=".67" stop-color="#6150a1"/>
      <stop offset=".89" stop-color="#6a51a2"/>
      <stop offset="1" stop-color="#7251a2"/>
    </linearGradient>
    <linearGradient id="linear-gradient1" x1="157.15" y1="347.94" x2="157.15" y2="17.9" gradientUnits="userSpaceOnUse">
      <stop offset="0" stop-color="#7794cc"/>
      <stop offset=".55" stop-color="#6065ae"/>
    </linearGradient>
  </defs>
  <rect class="st2" x="17.9" y="17.9" width="464.2" height="464.2" rx="50" ry="50"/>
  <path class="st1" d="M17.9,347.94L296.4,17.9H125.35c-59.34,0-107.45,48.11-107.45,107.45v222.59Z"/>
  <path class="st0" d="M116.47,121.06h264.82c9.19,0,15.5,9.25,12.16,17.81l-16.69,42.66c-1.96,5-6.78,8.3-12.16,8.3h-69.3c-7.21,0-13.05,5.84-13.05,13.05v199.55c0,7.21-5.84,13.05-13.05,13.05h-42.66c-7.21,0-13.05-5.84-13.05-13.05v-201.7c0-7.21-5.84-13.05-13.05-13.05h-68.39c-5.4,0-10.25-3.33-12.18-8.37l-15.56-40.52c-3.28-8.55,3.03-17.73,12.18-17.73Z"/>
</svg>